<svg width="605" height="408" viewBox="0 0 605 408" fill="none" xmlns="http://www.w3.org/2000/svg">
<path d="M324.735 223.278L231.549 380.237L138.363 223.278H324.735ZM349.699 209.249H113.298L231.549 407.999L349.699 209.249Z" fill="#263238"/>
<path d="M486.75 28.0564L579.935 185.016H393.563L486.75 28.0564ZM486.75 0L368.499 198.75H605L486.75 0Z" fill="#263238"/>
<path d="M0 0L99.1492 175.795L207.495 4.41424L0 0Z" fill="#49AAEE"/>
<path d="M231.551 15.3999L335.552 190.214H127.349L231.551 15.3999Z" fill="#49AAEE"/>
<path d="M362.335 228.379L466.436 408H253.281L359.1 228.379H362.335Z" fill="#49AAEE"/>
<path d="M384.872 217.49L486.75 394.363L590.042 217.49H384.872Z" fill="#49AAEE"/>
</svg>
